<svg width="108" height="108" viewBox="0 0 108 108" fill="none" xmlns="http://www.w3.org/2000/svg">
<g filter="url(#filter0_d_684_3196)">
<rect x="4" width="100" height="100" rx="20" fill="white"/>
</g>
<circle cx="54" cy="52" r="30" fill="#3182F7"/>
<path d="M45.7656 48.0278C45.7656 49.1997 45.6216 50.291 45.3335 51.3018C45.0503 52.3125 44.6206 53.2036 44.0444 53.9751C43.4683 54.7417 42.7505 55.3228 41.8911 55.7183L40.7559 54.1582C41.5127 53.8359 42.1499 53.3623 42.6675 52.7373C43.1899 52.1123 43.5806 51.3945 43.8394 50.584C44.0981 49.7734 44.2275 48.9214 44.2275 48.0278V46.0356H45.7656V48.0278ZM46.1245 48.0278C46.1245 48.8774 46.249 49.688 46.498 50.4595C46.752 51.2261 47.1328 51.9121 47.6406 52.5176C48.1484 53.123 48.7661 53.5796 49.4937 53.8872L48.395 55.3887C47.5698 55.0127 46.8691 54.4561 46.293 53.7188C45.7217 52.9814 45.2944 52.127 45.0112 51.1553C44.728 50.1836 44.5864 49.1411 44.5864 48.0278V46.0356H46.1245V48.0278ZM52.0938 58.3843H50.1968V45.0029H52.0938V58.3843ZM58.4585 47.2441C58.4585 48.0938 58.3169 48.8921 58.0337 49.6392C57.7554 50.3813 57.333 51.0283 56.7666 51.5801C56.2051 52.127 55.5117 52.5396 54.6865 52.8179L53.7051 51.375C54.4131 51.1406 55.0088 50.8086 55.4922 50.3789C55.9756 49.9443 56.3345 49.4585 56.5688 48.9214C56.8081 48.3794 56.9277 47.8203 56.9277 47.2441V46.3799H58.4585V47.2441ZM58.8174 47.2588C58.8174 47.8008 58.9272 48.3257 59.147 48.8335C59.3716 49.3364 59.7158 49.7905 60.1797 50.1958C60.6436 50.6011 61.2222 50.9185 61.9155 51.1479L60.978 52.5908C60.1675 52.3271 59.4863 51.9292 58.9346 51.397C58.3877 50.8599 57.9775 50.2397 57.7041 49.5366C57.4307 48.8286 57.2939 48.0693 57.2939 47.2588V46.3799H58.8174V47.2588ZM61.4761 47.2881H54.2104V45.7939H61.4761V47.2881ZM64.4717 53.0596H62.604V45.0029H64.4717V53.0596ZM66.2734 49.8003H63.9443V48.2476H66.2734V49.8003ZM64.4717 58.3477H62.604V55.1177H55.4995V53.6309H64.4717V58.3477Z" fill="white"/>
<defs>
<filter id="filter0_d_684_3196" x="0" y="0" width="108" height="108" filterUnits="userSpaceOnUse" color-interpolation-filters="sRGB">
<feFlood flood-opacity="0" result="BackgroundImageFix"/>
<feColorMatrix in="SourceAlpha" type="matrix" values="0 0 0 0 0 0 0 0 0 0 0 0 0 0 0 0 0 0 127 0" result="hardAlpha"/>
<feOffset dy="4"/>
<feGaussianBlur stdDeviation="2"/>
<feComposite in2="hardAlpha" operator="out"/>
<feColorMatrix type="matrix" values="0 0 0 0 0 0 0 0 0 0 0 0 0 0 0 0 0 0 0.25 0"/>
<feBlend mode="normal" in2="BackgroundImageFix" result="effect1_dropShadow_684_3196"/>
<feBlend mode="normal" in="SourceGraphic" in2="effect1_dropShadow_684_3196" result="shape"/>
</filter>
</defs>
</svg>
