<svg width="269" height="311" viewBox="0 0 269 311" fill="none" xmlns="http://www.w3.org/2000/svg">
<g filter="url(#filter0_d_696_3316)">
<rect x="4" y="243" width="60" height="60" rx="10" fill="white"/>
<rect x="4.25" y="243.25" width="59.5" height="59.5" rx="9.75" stroke="black" stroke-width="0.5"/>
</g>
<path d="M39.7812 277.842H37.916V264.15H39.7812V277.842ZM42.2715 271.709H39.0488V270.166H42.2715V271.709ZM40.3965 281.309H28.4434V279.775H40.3965V281.309ZM30.3184 280.244H28.4434V276.924H30.3184V280.244ZM32.3008 275.107H30.4648V272.656H32.3008V275.107ZM25.8848 274.443C27.9355 274.443 29.8854 274.404 31.7344 274.326C33.5833 274.242 35.3118 274.076 36.9199 273.828L37.0762 275.127C35.9303 275.342 34.7194 275.508 33.4434 275.625C32.1673 275.742 30.9727 275.817 29.8594 275.85C28.7461 275.882 27.4896 275.905 26.0898 275.918L25.8848 274.443ZM36.4219 267.148H26.3242V265.781H36.4219V267.148ZM31.3633 267.812C32.2031 267.812 32.9355 267.92 33.5605 268.135C34.1855 268.343 34.6706 268.652 35.0156 269.062C35.3672 269.473 35.543 269.961 35.543 270.527C35.543 271.068 35.3672 271.54 35.0156 271.943C34.6706 272.347 34.1855 272.66 33.5605 272.881C32.9355 273.096 32.2031 273.203 31.3633 273.203C30.5365 273.203 29.8073 273.096 29.1758 272.881C28.5508 272.66 28.0658 272.347 27.7207 271.943C27.3757 271.54 27.2031 271.068 27.2031 270.527C27.2031 269.961 27.3757 269.476 27.7207 269.072C28.0658 268.669 28.5508 268.359 29.1758 268.145C29.8073 267.923 30.5365 267.812 31.3633 267.812ZM31.3633 269.102C30.875 269.102 30.4518 269.157 30.0938 269.268C29.7357 269.372 29.459 269.535 29.2637 269.756C29.0684 269.971 28.9707 270.228 28.9707 270.527C28.9707 270.807 29.0684 271.051 29.2637 271.26C29.459 271.468 29.7357 271.631 30.0938 271.748C30.4518 271.859 30.875 271.914 31.3633 271.914C31.8646 271.914 32.291 271.859 32.6426 271.748C33.0007 271.631 33.2773 271.468 33.4727 271.26C33.668 271.051 33.7656 270.807 33.7656 270.527C33.7656 270.228 33.6712 269.971 33.4824 269.756C33.2936 269.535 33.0169 269.372 32.6523 269.268C32.2943 269.157 31.8646 269.102 31.3633 269.102ZM32.3008 266.406H30.4648V264.102H32.3008V266.406Z" fill="black"/>
<g filter="url(#filter1_d_696_3316)">
<rect x="4" y="30" width="126" height="130" rx="10" fill="white"/>
<rect x="4.25" y="30.25" width="125.5" height="129.5" rx="9.75" stroke="black" stroke-width="0.5"/>
</g>
<circle cx="65" cy="95" r="30" stroke="#5EA97B" stroke-width="10"/>
<g filter="url(#filter2_d_696_3316)">
<rect x="139" y="30" width="126" height="130" rx="10" fill="white"/>
<rect x="139.25" y="30.25" width="125.5" height="129.5" rx="9.75" stroke="black" stroke-width="0.5"/>
</g>
<path d="M225.5 72.5L180.5 117.5" stroke="#FF5E5E" stroke-width="10" stroke-linecap="round" stroke-linejoin="round"/>
<path d="M180.5 72.5L225.5 117.5" stroke="#FF5E5E" stroke-width="10" stroke-linecap="round" stroke-linejoin="round"/>
<g filter="url(#filter3_d_696_3316)">
<rect x="70" y="243" width="60" height="60" rx="10" fill="white"/>
<rect x="70.25" y="243.25" width="59.5" height="59.5" rx="9.75" stroke="black" stroke-width="0.5"/>
</g>
<g filter="url(#filter4_d_696_3316)">
<rect x="136" y="243" width="60" height="60" rx="10" fill="white"/>
<rect x="136.25" y="243.25" width="59.5" height="59.5" rx="9.75" stroke="black" stroke-width="0.5"/>
</g>
<g filter="url(#filter5_d_696_3316)">
<rect x="202" y="243" width="60" height="60" rx="10" fill="white"/>
<rect x="202.25" y="243.25" width="59.5" height="59.5" rx="9.75" stroke="black" stroke-width="0.5"/>
</g>
<path d="M16.1851 10.4043C16.1851 11.3776 15.9989 12.2218 15.6265 12.937C15.2583 13.6479 14.7484 14.1917 14.0967 14.5684C13.4492 14.9408 12.715 15.127 11.894 15.127C11.0731 15.127 10.3368 14.9408 9.68506 14.5684C9.0376 14.1917 8.52767 13.6458 8.15527 12.9307C7.78711 12.2155 7.60303 11.3734 7.60303 10.4043C7.60303 9.42253 7.78711 8.57617 8.15527 7.86523C8.52767 7.1543 9.0376 6.61263 9.68506 6.24023C10.3368 5.86784 11.0731 5.68164 11.894 5.68164C12.715 5.68164 13.4492 5.86784 14.0967 6.24023C14.7484 6.61263 15.2583 7.1543 15.6265 7.86523C15.9989 8.57617 16.1851 9.42253 16.1851 10.4043ZM14.2554 10.4043C14.2554 9.75684 14.158 9.20671 13.9634 8.75391C13.7729 8.30111 13.5 7.95833 13.1445 7.72559C12.7933 7.48861 12.3765 7.37012 11.894 7.37012C11.4159 7.37012 10.999 7.48861 10.6436 7.72559C10.2923 7.95833 10.0194 8.30111 9.82471 8.75391C9.63005 9.20671 9.53271 9.75684 9.53271 10.4043C9.53271 11.0518 9.63005 11.6019 9.82471 12.0547C10.0194 12.5075 10.2923 12.8524 10.6436 13.0894C10.999 13.3221 11.4159 13.4385 11.894 13.4385C12.3765 13.4385 12.7933 13.3221 13.1445 13.0894C13.5 12.8524 13.7729 12.5075 13.9634 12.0547C14.158 11.6019 14.2554 11.0518 14.2554 10.4043ZM17.8862 17.6787H16.5405L17.1689 14.0669H18.9844L17.8862 17.6787ZM26.938 8.96973H27.0142L28.8931 5.80859H31.0513L28.252 10.4043L31.1147 15H28.9185L27.0142 11.8389H26.938L25.0337 15H22.8438L25.7256 10.4043L22.8945 5.80859H25.0654L26.938 8.96973ZM40.687 6.66553H35.6787V5.36426H40.687V6.66553ZM41.5312 6.0752C41.527 6.58301 41.5186 7.02734 41.5059 7.4082C41.4932 7.78483 41.4551 8.24398 41.3916 8.78564C41.3281 9.32308 41.2308 9.9113 41.0996 10.5503L39.4746 10.5757C39.6227 9.93669 39.7306 9.34424 39.7983 8.79834C39.866 8.25244 39.9062 7.7806 39.9189 7.38281C39.9359 6.98503 39.9443 6.54915 39.9443 6.0752V5.36426H41.5312V6.0752ZM35.6152 9.21094L35.3931 7.87158L40.1538 7.6748V8.82373L35.6152 9.21094ZM39.2842 15.5332H37.6528V10.8486H39.2842V15.5332ZM44.686 16.168H43.0547V4.60254H44.686V16.168ZM34.7202 10.3599C36.3283 10.3472 37.729 10.3218 38.9224 10.2837C40.1157 10.2456 41.271 10.1673 42.3882 10.0488L42.5088 11.2485C41.3366 11.4093 40.1242 11.5194 38.8716 11.5786C37.619 11.6379 36.2987 11.6675 34.9106 11.6675L34.7202 10.3599ZM56.5942 14.7715H46.0317V13.4575H56.5942V14.7715ZM51.8081 6.90039C51.8081 7.70443 51.6177 8.44287 51.2368 9.11572C50.8602 9.78857 50.3143 10.3599 49.5991 10.8296C48.884 11.2951 48.0461 11.6125 47.0854 11.7817L46.4507 10.4805C47.2716 10.3451 47.9826 10.0996 48.5835 9.74414C49.1886 9.38867 49.6478 8.96338 49.9609 8.46826C50.2783 7.96891 50.437 7.44629 50.437 6.90039V6.2085H51.8081V6.90039ZM52.1382 6.90039C52.1382 7.45052 52.2969 7.96891 52.6143 8.45557C52.9359 8.94222 53.4035 9.36117 54.0171 9.7124C54.6349 10.0594 55.3649 10.2985 56.207 10.4297L55.5723 11.7119C54.599 11.5342 53.7505 11.2189 53.0269 10.7661C52.3032 10.3133 51.7467 9.75684 51.3574 9.09668C50.9723 8.43229 50.7798 7.7002 50.7798 6.90039V6.2085H52.1382V6.90039ZM55.6738 6.8877H46.9014V5.60547H55.6738V6.8877Z" fill="black"/>
<path d="M16.0137 224.392H13.2969V223.078H16.0137V224.392ZM11.3418 222.583C11.3418 223.387 11.2233 224.13 10.9863 224.811C10.7493 225.488 10.3918 226.081 9.91357 226.588C9.43962 227.092 8.84928 227.473 8.14258 227.731L7.2666 226.449C7.88867 226.241 8.40495 225.941 8.81543 225.547C9.23014 225.154 9.53695 224.705 9.73584 224.202C9.93473 223.698 10.0342 223.159 10.0342 222.583V221.326H11.3418V222.583ZM11.6655 222.596C11.6655 223.116 11.7607 223.611 11.9512 224.081C12.1416 224.547 12.4336 224.965 12.8271 225.338C13.2249 225.706 13.7201 225.992 14.3125 226.195L13.4302 227.452C12.7616 227.198 12.1987 226.832 11.7417 226.354C11.2889 225.871 10.9482 225.31 10.7197 224.671C10.4912 224.032 10.377 223.34 10.377 222.596V221.326H11.6655V222.596ZM17.0801 229.159H15.4678V220.628H17.0801V229.159ZM17.3276 231.971H9.38672V230.664H17.3276V231.971ZM11.0244 231.375H9.38672V228.264H11.0244V231.375ZM19.7651 225.903C20.7088 225.899 21.4748 225.88 22.063 225.846C22.6554 225.812 23.2458 225.742 23.834 225.636L23.9927 226.944C23.3537 227.05 22.7274 227.124 22.1138 227.166C21.5044 227.204 20.7215 227.223 19.7651 227.223H18.9844V225.903H19.7651ZM23.5483 222.685H20.5332V226.62H18.9844V221.383H23.5483V222.685ZM23.4404 224.868H20.0698V223.643H23.4404V224.868ZM28.5059 227.667H26.9634V220.628H28.5059V227.667ZM27.4014 224.741H25.5288V223.446H27.4014V224.741ZM25.9604 227.591H24.4624V220.825H25.9604V227.591ZM28.5059 232.168H26.8999V229.445H20.5205V228.15H28.5059V232.168ZM38.5542 224.449H36.3896V223.148H38.5542V224.449ZM38.5098 226.753H36.3643V225.458H38.5098V226.753ZM36.2563 222.964H29.8389V221.682H36.2563V222.964ZM33.1143 223.351C33.639 223.351 34.1087 223.442 34.5234 223.624C34.9424 223.806 35.2682 224.062 35.501 224.392C35.7337 224.718 35.8501 225.09 35.8501 225.509C35.8501 225.937 35.7337 226.313 35.501 226.639C35.2682 226.965 34.9424 227.219 34.5234 227.401C34.1087 227.583 33.639 227.674 33.1143 227.674C32.5895 227.674 32.1198 227.583 31.7051 227.401C31.2946 227.219 30.9751 226.965 30.7466 226.639C30.5223 226.313 30.4102 225.937 30.4102 225.509C30.4102 225.086 30.5223 224.712 30.7466 224.386C30.9751 224.06 31.2946 223.806 31.7051 223.624C32.1198 223.442 32.5895 223.351 33.1143 223.351ZM33.1143 224.551C32.873 224.551 32.6615 224.589 32.4795 224.665C32.3018 224.741 32.1621 224.851 32.0605 224.995C31.9632 225.135 31.9146 225.306 31.9146 225.509C31.9146 225.717 31.9632 225.892 32.0605 226.036C32.1621 226.176 32.3018 226.284 32.4795 226.36C32.6572 226.432 32.8688 226.468 33.1143 226.468C33.3597 226.468 33.5734 226.432 33.7554 226.36C33.9416 226.284 34.0854 226.176 34.187 226.036C34.2928 225.892 34.3457 225.717 34.3457 225.509C34.3457 225.306 34.2928 225.135 34.187 224.995C34.0854 224.851 33.9416 224.741 33.7554 224.665C33.5734 224.589 33.3597 224.551 33.1143 224.551ZM33.9395 222.564H32.3208V220.514H33.9395V222.564ZM39.5508 227.979H37.9385V220.603H39.5508V227.979ZM35.6279 228.112C36.4447 228.112 37.1514 228.192 37.748 228.353C38.349 228.514 38.8102 228.749 39.1318 229.058C39.4535 229.362 39.6143 229.724 39.6143 230.143C39.6143 230.562 39.4535 230.924 39.1318 231.229C38.8102 231.533 38.349 231.766 37.748 231.927C37.1471 232.088 36.4404 232.168 35.6279 232.168C34.8112 232.168 34.1045 232.088 33.5078 231.927C32.9111 231.766 32.4499 231.533 32.124 231.229C31.8024 230.924 31.6416 230.562 31.6416 230.143C31.6416 229.724 31.8024 229.362 32.124 229.058C32.4499 228.749 32.9111 228.514 33.5078 228.353C34.1045 228.192 34.8112 228.112 35.6279 228.112ZM35.6279 229.343C35.1286 229.343 34.7096 229.373 34.3711 229.432C34.0326 229.487 33.7765 229.574 33.603 229.692C33.4295 229.811 33.3428 229.961 33.3428 230.143C33.3428 230.317 33.4295 230.465 33.603 230.587C33.7808 230.706 34.0389 230.797 34.3774 230.86C34.716 230.92 35.1328 230.949 35.6279 230.949C36.1146 230.949 36.5229 230.92 36.853 230.86C37.1873 230.797 37.4412 230.706 37.6147 230.587C37.7882 230.465 37.875 230.317 37.875 230.143C37.875 229.961 37.7882 229.811 37.6147 229.692C37.4455 229.574 37.1958 229.487 36.8657 229.432C36.5356 229.373 36.123 229.343 35.6279 229.343ZM49.9546 222.666H44.9463V221.364H49.9546V222.666ZM50.7988 222.075C50.7946 222.583 50.7861 223.027 50.7734 223.408C50.7607 223.785 50.7227 224.244 50.6592 224.786C50.5957 225.323 50.4984 225.911 50.3672 226.55L48.7422 226.576C48.8903 225.937 48.9982 225.344 49.0659 224.798C49.1336 224.252 49.1738 223.781 49.1865 223.383C49.2035 222.985 49.2119 222.549 49.2119 222.075V221.364H50.7988V222.075ZM44.8828 225.211L44.6606 223.872L49.4214 223.675V224.824L44.8828 225.211ZM48.5518 231.533H46.9204V226.849H48.5518V231.533ZM53.9536 232.168H52.3223V220.603H53.9536V232.168ZM43.9878 226.36C45.5959 226.347 46.9966 226.322 48.1899 226.284C49.3833 226.246 50.5386 226.167 51.6558 226.049L51.7764 227.249C50.6042 227.409 49.3918 227.519 48.1392 227.579C46.8866 227.638 45.5662 227.667 44.1782 227.667L43.9878 226.36ZM65.8618 230.771H55.2993V229.458H65.8618V230.771ZM61.0757 222.9C61.0757 223.704 60.8853 224.443 60.5044 225.116C60.1278 225.789 59.5819 226.36 58.8667 226.83C58.1515 227.295 57.3136 227.612 56.353 227.782L55.7183 226.48C56.5392 226.345 57.2502 226.1 57.8511 225.744C58.4562 225.389 58.9154 224.963 59.2285 224.468C59.5459 223.969 59.7046 223.446 59.7046 222.9V222.208H61.0757V222.9ZM61.4058 222.9C61.4058 223.451 61.5645 223.969 61.8818 224.456C62.2035 224.942 62.6711 225.361 63.2847 225.712C63.9025 226.059 64.6325 226.299 65.4746 226.43L64.8398 227.712C63.8665 227.534 63.0181 227.219 62.2944 226.766C61.5708 226.313 61.0143 225.757 60.625 225.097C60.2399 224.432 60.0474 223.7 60.0474 222.9V222.208H61.4058V222.9ZM64.9414 222.888H56.1689V221.605H64.9414V222.888Z" fill="black"/>
<path d="M105.049 268.76H100.469V267.285H105.049V268.76ZM104.922 272.402H100.332V270.889H104.922V272.402ZM106.592 274.541H104.736V264.17H106.592V274.541ZM101.123 265.43C101.123 266.934 100.801 268.291 100.156 269.502C99.5117 270.713 98.5807 271.748 97.3633 272.607C96.1523 273.46 94.6875 274.137 92.9688 274.639L92.207 273.174C93.7044 272.751 94.9674 272.201 95.9961 271.523C97.0312 270.84 97.8125 270.055 98.3398 269.17C98.8737 268.285 99.1406 267.324 99.1406 266.289V265.43H101.123ZM100.41 266.953H93.1152V265.43H100.41V266.953ZM100.83 274.727C102.008 274.727 103.04 274.867 103.926 275.146C104.818 275.42 105.501 275.811 105.977 276.318C106.458 276.826 106.699 277.435 106.699 278.145C106.699 278.848 106.458 279.46 105.977 279.98C105.501 280.495 104.818 280.889 103.926 281.162C103.04 281.436 102.008 281.572 100.83 281.572C99.6452 281.572 98.61 281.436 97.7246 281.162C96.8392 280.889 96.1523 280.495 95.6641 279.98C95.1823 279.46 94.9414 278.848 94.9414 278.145C94.9414 277.435 95.1823 276.826 95.6641 276.318C96.1523 275.811 96.8392 275.42 97.7246 275.146C98.61 274.867 99.6452 274.727 100.83 274.727ZM100.83 276.191C100.01 276.178 99.2904 276.25 98.6719 276.406C98.0599 276.562 97.5879 276.79 97.2559 277.09C96.9303 277.383 96.7676 277.734 96.7676 278.145C96.7676 278.548 96.9303 278.896 97.2559 279.189C97.5879 279.476 98.0566 279.697 98.6621 279.854C99.2741 280.01 99.9967 280.088 100.83 280.088C101.65 280.088 102.36 280.01 102.959 279.854C103.564 279.697 104.03 279.476 104.355 279.189C104.688 278.896 104.854 278.548 104.854 278.145C104.854 277.734 104.688 277.383 104.355 277.09C104.03 276.79 103.564 276.562 102.959 276.406C102.36 276.25 101.65 276.178 100.83 276.191Z" fill="black"/>
<path d="M174.018 279.482H158.002V277.959H174.018V279.482ZM166.879 278.389H165.062V273.877H166.879V278.389ZM161.693 268.369H170.287V265.352H172.113V274.365H159.828V265.352H161.693V268.369ZM170.287 272.861V269.863H161.693V272.861H170.287Z" fill="black"/>
<path d="M239.168 268.135H224.754V266.621H239.168V268.135ZM240.018 279.697H224.002V278.184H240.018V279.697ZM232.879 278.75H231.053V275.508H232.879V278.75ZM231.971 269.18C233.149 269.173 234.178 269.303 235.057 269.57C235.936 269.831 236.609 270.212 237.078 270.713C237.553 271.208 237.791 271.807 237.791 272.51C237.791 273.213 237.553 273.818 237.078 274.326C236.609 274.834 235.939 275.225 235.066 275.498C234.194 275.771 233.162 275.908 231.971 275.908C230.773 275.908 229.734 275.771 228.855 275.498C227.983 275.225 227.312 274.834 226.844 274.326C226.375 273.818 226.141 273.213 226.141 272.51C226.141 271.807 226.375 271.208 226.844 270.713C227.312 270.212 227.983 269.831 228.855 269.57C229.734 269.303 230.773 269.173 231.971 269.18ZM231.971 270.635C231.137 270.635 230.424 270.71 229.832 270.859C229.246 271.003 228.797 271.214 228.484 271.494C228.178 271.768 228.025 272.106 228.025 272.51C228.025 272.907 228.178 273.249 228.484 273.535C228.797 273.815 229.246 274.03 229.832 274.18C230.424 274.323 231.137 274.401 231.971 274.414C232.798 274.401 233.504 274.323 234.09 274.18C234.676 274.03 235.122 273.815 235.428 273.535C235.74 273.249 235.896 272.907 235.896 272.51C235.896 272.106 235.74 271.768 235.428 271.494C235.122 271.214 234.673 271.003 234.08 270.859C233.488 270.71 232.785 270.635 231.971 270.635ZM232.879 267.559H231.053V264.404H232.879V267.559Z" fill="black"/>
<defs>
<filter id="filter0_d_696_3316" x="0" y="243" width="68" height="68" filterUnits="userSpaceOnUse" color-interpolation-filters="sRGB">
<feFlood flood-opacity="0" result="BackgroundImageFix"/>
<feColorMatrix in="SourceAlpha" type="matrix" values="0 0 0 0 0 0 0 0 0 0 0 0 0 0 0 0 0 0 127 0" result="hardAlpha"/>
<feOffset dy="4"/>
<feGaussianBlur stdDeviation="2"/>
<feComposite in2="hardAlpha" operator="out"/>
<feColorMatrix type="matrix" values="0 0 0 0 0 0 0 0 0 0 0 0 0 0 0 0 0 0 0.25 0"/>
<feBlend mode="normal" in2="BackgroundImageFix" result="effect1_dropShadow_696_3316"/>
<feBlend mode="normal" in="SourceGraphic" in2="effect1_dropShadow_696_3316" result="shape"/>
</filter>
<filter id="filter1_d_696_3316" x="0" y="30" width="134" height="138" filterUnits="userSpaceOnUse" color-interpolation-filters="sRGB">
<feFlood flood-opacity="0" result="BackgroundImageFix"/>
<feColorMatrix in="SourceAlpha" type="matrix" values="0 0 0 0 0 0 0 0 0 0 0 0 0 0 0 0 0 0 127 0" result="hardAlpha"/>
<feOffset dy="4"/>
<feGaussianBlur stdDeviation="2"/>
<feComposite in2="hardAlpha" operator="out"/>
<feColorMatrix type="matrix" values="0 0 0 0 0 0 0 0 0 0 0 0 0 0 0 0 0 0 0.25 0"/>
<feBlend mode="normal" in2="BackgroundImageFix" result="effect1_dropShadow_696_3316"/>
<feBlend mode="normal" in="SourceGraphic" in2="effect1_dropShadow_696_3316" result="shape"/>
</filter>
<filter id="filter2_d_696_3316" x="135" y="30" width="134" height="138" filterUnits="userSpaceOnUse" color-interpolation-filters="sRGB">
<feFlood flood-opacity="0" result="BackgroundImageFix"/>
<feColorMatrix in="SourceAlpha" type="matrix" values="0 0 0 0 0 0 0 0 0 0 0 0 0 0 0 0 0 0 127 0" result="hardAlpha"/>
<feOffset dy="4"/>
<feGaussianBlur stdDeviation="2"/>
<feComposite in2="hardAlpha" operator="out"/>
<feColorMatrix type="matrix" values="0 0 0 0 0 0 0 0 0 0 0 0 0 0 0 0 0 0 0.25 0"/>
<feBlend mode="normal" in2="BackgroundImageFix" result="effect1_dropShadow_696_3316"/>
<feBlend mode="normal" in="SourceGraphic" in2="effect1_dropShadow_696_3316" result="shape"/>
</filter>
<filter id="filter3_d_696_3316" x="66" y="243" width="68" height="68" filterUnits="userSpaceOnUse" color-interpolation-filters="sRGB">
<feFlood flood-opacity="0" result="BackgroundImageFix"/>
<feColorMatrix in="SourceAlpha" type="matrix" values="0 0 0 0 0 0 0 0 0 0 0 0 0 0 0 0 0 0 127 0" result="hardAlpha"/>
<feOffset dy="4"/>
<feGaussianBlur stdDeviation="2"/>
<feComposite in2="hardAlpha" operator="out"/>
<feColorMatrix type="matrix" values="0 0 0 0 0 0 0 0 0 0 0 0 0 0 0 0 0 0 0.25 0"/>
<feBlend mode="normal" in2="BackgroundImageFix" result="effect1_dropShadow_696_3316"/>
<feBlend mode="normal" in="SourceGraphic" in2="effect1_dropShadow_696_3316" result="shape"/>
</filter>
<filter id="filter4_d_696_3316" x="132" y="243" width="68" height="68" filterUnits="userSpaceOnUse" color-interpolation-filters="sRGB">
<feFlood flood-opacity="0" result="BackgroundImageFix"/>
<feColorMatrix in="SourceAlpha" type="matrix" values="0 0 0 0 0 0 0 0 0 0 0 0 0 0 0 0 0 0 127 0" result="hardAlpha"/>
<feOffset dy="4"/>
<feGaussianBlur stdDeviation="2"/>
<feComposite in2="hardAlpha" operator="out"/>
<feColorMatrix type="matrix" values="0 0 0 0 0 0 0 0 0 0 0 0 0 0 0 0 0 0 0.25 0"/>
<feBlend mode="normal" in2="BackgroundImageFix" result="effect1_dropShadow_696_3316"/>
<feBlend mode="normal" in="SourceGraphic" in2="effect1_dropShadow_696_3316" result="shape"/>
</filter>
<filter id="filter5_d_696_3316" x="198" y="243" width="68" height="68" filterUnits="userSpaceOnUse" color-interpolation-filters="sRGB">
<feFlood flood-opacity="0" result="BackgroundImageFix"/>
<feColorMatrix in="SourceAlpha" type="matrix" values="0 0 0 0 0 0 0 0 0 0 0 0 0 0 0 0 0 0 127 0" result="hardAlpha"/>
<feOffset dy="4"/>
<feGaussianBlur stdDeviation="2"/>
<feComposite in2="hardAlpha" operator="out"/>
<feColorMatrix type="matrix" values="0 0 0 0 0 0 0 0 0 0 0 0 0 0 0 0 0 0 0.25 0"/>
<feBlend mode="normal" in2="BackgroundImageFix" result="effect1_dropShadow_696_3316"/>
<feBlend mode="normal" in="SourceGraphic" in2="effect1_dropShadow_696_3316" result="shape"/>
</filter>
</defs>
</svg>
