<svg width="150" height="150" viewBox="0 0 150 150" fill="none" xmlns="http://www.w3.org/2000/svg">
<circle cx="75" cy="75" r="75" fill="#3182F7"/>
<path d="M58.5039 68.3301C58.5039 70.2637 58.1719 72.1436 57.5078 73.9697C56.8438 75.7959 55.9404 77.4023 54.7979 78.7891C53.6553 80.1758 52.3711 81.2305 50.9453 81.9531L49.4805 80.0195C50.7695 79.4141 51.9561 78.5059 53.04 77.2949C54.124 76.084 54.9883 74.6875 55.6328 73.1055C56.2773 71.5234 56.5996 69.9316 56.5996 68.3301V63.584H58.5039V68.3301ZM58.8848 68.3301C58.8848 69.873 59.2021 71.4014 59.8369 72.915C60.4717 74.4287 61.3311 75.7764 62.415 76.958C63.499 78.1396 64.6758 79.0234 65.9453 79.6094L64.5391 81.4258C63.1523 80.7422 61.8779 79.7314 60.7158 78.3936C59.5537 77.0557 58.6357 75.5078 57.9619 73.75C57.2881 71.9922 56.9512 70.1855 56.9512 68.3301V63.584H58.8848V68.3301ZM71.1016 87.4316H68.7871V61.3281H71.1016V87.4316ZM83.9629 66.1621C83.9629 67.7246 83.6602 69.1895 83.0547 70.5566C82.4492 71.9238 81.5996 73.1104 80.5059 74.1162C79.4121 75.1221 78.1426 75.8887 76.6973 76.416L75.4668 74.6289C76.7559 74.1602 77.9033 73.4961 78.9092 72.6367C79.915 71.7773 80.7012 70.7861 81.2676 69.6631C81.834 68.54 82.1172 67.373 82.1172 66.1621V64.0234H83.9629V66.1621ZM84.373 66.1621C84.373 67.2949 84.6416 68.3887 85.1787 69.4434C85.7158 70.498 86.4678 71.4307 87.4346 72.2412C88.4014 73.0518 89.5195 73.6816 90.7891 74.1309L89.6172 75.918C88.1914 75.4102 86.9414 74.6729 85.8672 73.7061C84.793 72.7393 83.9629 71.6064 83.377 70.3076C82.791 69.0088 82.498 67.627 82.498 66.1621V64.0234H84.373V66.1621ZM90.2324 65.0488H76.1699V63.1738H90.2324V65.0488ZM95.916 77.0312H93.6309V61.3281H95.916V77.0312ZM99.8418 70.1758H95.2715V68.2129H99.8418V70.1758ZM95.916 87.373H93.6309V80.2832H78.8652V78.4082H95.916V87.373Z" fill="white"/>
</svg>
